<svg xmlns="http://www.w3.org/2000/svg" viewBox="0 0 107.76 80.05"><g id="Camada_2" data-name="Camada 2"><g id="OBJECTS"><path d="M92.29,41.72q-1.86-2-7.75-3.06a25.94,25.94,0,0,1-5.85-1.48A3.08,3.08,0,0,1,77,35.56a11.2,11.2,0,0,1-.29-3A5,5,0,0,1,77.27,30,3,3,0,0,1,79,28.6a2.94,2.94,0,0,1,1-.19.81.81,0,0,1,.81.45,12.47,12.47,0,0,1,.36,4v2.52l12-4.06v-2.7a25.47,25.47,0,0,0-.35-5,5.5,5.5,0,0,0-2-2.9A7.91,7.91,0,0,0,86,19.17h-.48a22.55,22.55,0,0,0-7,1.38,27.18,27.18,0,0,0-7.83,4.09,15.21,15.21,0,0,0-4.78,5.7A17.67,17.67,0,0,0,64.55,36V41.2a11.39,11.39,0,0,0,1.18,4.16Q67,47.78,73,49.26c4.74,1.15,7.36,1.92,7.88,2.31s.73,1.7.73,3.92a7.09,7.09,0,0,1-.57,3.37,3.57,3.57,0,0,1-2,1.43,2.28,2.28,0,0,1-.76.14,1.05,1.05,0,0,1-1-.66,14.49,14.49,0,0,1-.45-4.71v-3l-12,4.06v2.25c0,3.48.38,6,1.12,7.69h0c.08.18.17.37.26.53.91,1.61,2.6,2.56,5,2.85a12.88,12.88,0,0,0,1.54.09,23.18,23.18,0,0,0,7.3-1.4,25.58,25.58,0,0,0,8-4.25,15.53,15.53,0,0,0,4.71-6,23.9,23.9,0,0,0,1.41-9C94.13,45.45,93.51,43.08,92.29,41.72Z"/><path d="M31.15,29.86l5.18,35.67,8.74-3,4.92-40v38.3l12.34-4.18V0L44,6.21,40.73,33.8l-2-13.75c-.58-4.44-1.13-8.27-1.68-11.5L18.79,14.73V71.47l12.34-4.18Z"/><path d="M63.94,67.12c-1.57.79-3.17,1.56-4.84,2.26-23.11,9.71-46.3,7-51.81-6.13C4,55.33,7.87,45.44,16.58,36.71v-.46C3.72,46.06-2.85,58.52,1.18,68.11,6.69,81.21,29.89,84,53,74.24a77.83,77.83,0,0,0,11.57-6,4.63,4.63,0,0,1-.31-.46C64.14,67.55,64,67.34,63.94,67.12Z"/><path d="M100.48,18.78c2.83,6.74.41,14.91-5.75,22.58a7.7,7.7,0,0,1,.54,1c10.12-9.18,14.89-20,11.31-28.48-4.72-11.24-22.48-14.85-42-9.5V7.88C81.59,4.77,96.25,8.72,100.48,18.78Z"/></g></g></svg>